<mxfile host="app.diagrams.net" modified="2023-09-28T04:48:18.470Z" agent="Mozilla/5.0 (Windows NT 10.0; Win64; x64) AppleWebKit/537.36 (KHTML, like Gecko) Chrome/117.0.0.0 Safari/537.36" version="21.8.2" etag="x08ekCouy6iGQGyw2uE7" type="github">
  <diagram name="Page-1" id="FLkdHJrf84SCdrSjRrXB">
    <mxGraphModel>
      <root>
        <mxCell id="0" />
        <mxCell id="1" parent="0" />
      </root>
    </mxGraphModel>
  </diagram>
</mxfile>
